PathFileType	4	(X/Y/Z)	C:/Users/opensim2020/Desktop/walking_exp_matlab/subject03_walking07_straight_04.trc																																																																																																																																								
DataRate	CameraRate	NumFrames	NumMarkers	Units	OrigDataRate	OrigDataStartFrame	OrigNumFrames																																																																																																																																				
100	100	6	46	mm	100	3091	265																																																																																																																																				
Frame#	Time	LFHD			RFHD			LBHD			RBHD			C7			T10			CLAV			STRN			RBAK			LSHO			LUPA			LELB			LFRM			LWRA			LWRB			LFIN			RSHO			RUPA			RELB			RFRM			RWRA			RWRB			RFIN			LASI			RASI			LPSI			RPSI			LTHI			LKNE			LTIB			LANK			LHEE			LTOE			RTHI			RKNE			RTIB			RANK			RHEE			RTOE			*39			*40			*41			*42			*43			*44			*45		
		X1	Y1	Z1	X2	Y2	Z2	X3	Y3	Z3	X4	Y4	Z4	X5	Y5	Z5	X6	Y6	Z6	X7	Y7	Z7	X8	Y8	Z8	X9	Y9	Z9	X10	Y10	Z10	X11	Y11	Z11	X12	Y12	Z12	X13	Y13	Z13	X14	Y14	Z14	X15	Y15	Z15	X16	Y16	Z16	X17	Y17	Z17	X18	Y18	Z18	X19	Y19	Z19	X20	Y20	Z20	X21	Y21	Z21	X22	Y22	Z22	X23	Y23	Z23	X24	Y24	Z24	X25	Y25	Z25	X26	Y26	Z26	X27	Y27	Z27	X28	Y28	Z28	X29	Y29	Z29	X30	Y30	Z30	X31	Y31	Z31	X32	Y32	Z32	X33	Y33	Z33	X34	Y34	Z34	X35	Y35	Z35	X36	Y36	Z36	X37	Y37	Z37	X38	Y38	Z38	X39	Y39	Z39	X40	Y40	Z40	X41	Y41	Z41	X42	Y42	Z42	X43	Y43	Z43	X44	Y44	Z44	X45	Y45	Z45	X46	Y46	Z46
																																																																																																																																											
133	1.32	224.3204	1601.68481	934.32489	215.47754	1611.49841	1066.52637	91.22734	1578.05176	930.48065	87.15223	1586.81641	1061.13086	40.13441	1416.17224	995.16772	3.85006	1099.8457	1003.27722	159.97403	1337.79456	999.25464	202.88405	1174.27893	999.48706	-14.40047	1241.99768	1100.12158	119.16081	1371.37097	841.45923	94.11814	1171.37	776.67853	84.06544	1047.97083	769.38782	87.35625	917.4248	770.89417	82.78297	797.5932	802.0379	63.23943	806.88495	749.49664	56.00342	721.32288	761.7356	116.00085	1367.26025	1157.23645	150.18405	1149.88379	1231.99756	188.42506	1044.23596	1242.97888	246.42561	920.87195	1236.48828	303.12012	844.13519	1192.82434	278.74146	825.79187	1237.03516	325.74368	770.29028	1221.30444	180.89262	943.2771	893.67529	167.26521	933.86414	1129.44519	16.46576	963.0769	934.28461	10.37938	965.38239	1083.69958	159.83014	641.24847	850.6001	196.60202	467.82504	892.41028	175.77211	273.18997	890.2959	194.29034	64.4361	931.53809	156.30492	29.77333	967.20502	348.23871	31.13589	954.58197	92.07204	634.9317	1172.51489	91.19208	453.98706	1150.36743	-54.39498	322.95258	1142.99768	-200.9733	167.66943	1089.39685	-245.37399	181.57649	1033.38025	-147.0464	33.65908	1061.52136	NaN	NaN	NaN	NaN	NaN	NaN	NaN	NaN	NaN	NaN	NaN	NaN	NaN	NaN	NaN	NaN	NaN	NaN	NaN	NaN	NaN
134	1.33	233.62204	1602.33643	933.73956	224.69762	1612.34619	1065.88098	100.57864	1578.68311	929.76648	96.32857	1587.60303	1060.44958	49.47288	1416.69812	994.29486	13.86735	1100.42712	1002.3689	169.64919	1338.72595	998.84796	212.96382	1175.43726	999.34375	-4.55676	1242.63879	1099.5343	129.36092	1372.53662	841.23163	106.18833	1172.59082	775.93665	97.48523	1049.16589	768.49622	102.40096	918.69067	770.18011	98.80132	798.69049	801.36499	79.89826	807.79144	748.59747	73.11269	722.1203	760.90918	125.05134	1368.48462	1156.4491	158.12959	1150.91809	1231.20593	195.18889	1044.8374	1242.10461	251.87405	920.93707	1236.05945	307.77243	843.16797	1192.44128	283.09018	825.3678	1236.89783	329.03397	768.4881	1220.95703	190.57074	944.06165	892.83868	177.0623	934.72192	1128.55396	26.4856	964.1629	933.69818	20.15515	966.13312	1083.05493	166.25937	641.68378	850.0293	201.40083	467.66193	891.75513	178.74863	273.46521	889.9425	194.00084	64.51026	931.46191	156.24475	29.80952	967.20935	348.41592	30.94309	954.74634	106.69406	634.25885	1172.63501	110.33222	453.44736	1150.89746	-35.65344	324.76569	1143.94495	-186.27303	173.25369	1091.07581	-230.72075	190.77794	1035.73975	-139.85698	37.95752	1061.72412	158.91858	1679.76843	975.82495	NaN	NaN	NaN	NaN	NaN	NaN	NaN	NaN	NaN	NaN	NaN	NaN	NaN	NaN	NaN	NaN	NaN	NaN
135	1.34	242.85942	1602.98718	933.20386	233.63405	1613.20374	1065.32593	109.84193	1579.03943	929.12628	105.38434	1588.16858	1059.75452	58.63902	1417.18335	993.69141	23.79082	1100.80994	1001.49347	179.13013	1339.45764	998.58948	222.85574	1176.29504	999.23328	4.99563	1243.03491	1098.84802	139.33795	1373.37842	840.96454	118.12984	1173.495	775.12598	110.94489	1050.1698	767.42755	117.5831	919.68134	769.44312	115.01496	799.45612	800.612	96.89124	808.4032	747.76788	90.68926	722.56879	760.1344	134.04221	1369.39294	1155.94934	165.97459	1151.55469	1230.61902	201.95688	1045.0863	1241.32776	257.31964	920.48401	1235.7334	312.37946	841.83588	1192.37378	287.53479	824.56995	1236.96106	332.19797	766.45276	1220.71289	200.1236	944.42511	892.1156	186.65425	935.19135	1127.98218	36.11115	964.92889	932.97992	29.63014	966.44604	1082.33984	172.78851	641.87897	849.30634	206.75114	467.4429	891.32672	181.85788	273.67966	889.49353	194.40102	64.57301	931.6123	156.18335	29.79597	967.11896	348.46558	30.79112	954.91974	120.99857	633.59955	1172.57654	129.40437	453.02417	1151.05237	-16.39474	325.53708	1145.52441	-171.61241	179.39658	1092.03748	-216.05661	198.4959	1036.77124	-128.78847	43.22904	1064.19836	168.32668	1677.4646	976.55811	NaN	NaN	NaN	NaN	NaN	NaN	NaN	NaN	NaN	NaN	NaN	NaN	NaN	NaN	NaN	NaN	NaN	NaN
136	1.35	252.07605	1603.5835	932.88147	242.59567	1614.01245	1064.92188	118.92998	1579.41296	928.60144	114.37894	1588.64392	1059.22632	67.8283	1417.60449	992.6131	33.56849	1101.10291	1000.62799	188.44362	1340.13635	998.38812	232.42398	1176.96985	999.17297	14.28518	1243.25952	1098.10364	149.26303	1373.93628	840.70618	130.24553	1174.16211	774.211	124.19989	1050.65356	766.54443	132.93338	920.34125	768.6059	131.86826	800.12103	799.96967	114.24352	808.76257	746.85577	108.76413	722.77142	759.37012	142.87398	1369.97559	1155.61499	173.56552	1151.80249	1230.24438	208.56134	1045.01404	1241.07898	262.70007	919.73248	1235.59692	316.90384	840.20624	1192.47754	291.81635	823.46143	1237.13843	335.27188	764.17932	1220.66199	209.72568	944.54706	891.3313	195.94193	935.45062	1127.24817	45.63652	965.30298	932.22986	38.8792	966.3985	1081.63977	179.54855	642.11279	848.14752	211.93513	467.24988	890.92126	184.88818	273.89359	889.07428	194.55901	64.62581	931.50684	156.13911	29.80928	966.99109	348.52597	30.66601	955.02252	135.06029	633.1543	1172.2439	148.56308	452.84341	1151.09021	2.83919	326.57648	1146.68103	-156.84485	186.06453	1092.34082	-200.86267	204.34204	1036.2688	-114.4511	48.8703	1068.04773	176.86743	1678.50415	978.04913	NaN	NaN	NaN	NaN	NaN	NaN	NaN	NaN	NaN	NaN	NaN	NaN	NaN	NaN	NaN	NaN	NaN	NaN
137	1.36	261.08252	1604.22778	932.56934	251.38806	1614.78125	1064.58008	128.12332	1579.70837	928.1438	123.25557	1589.02295	1058.7063	76.87379	1417.81665	992.27423	43.16983	1101.32361	999.85846	197.63931	1340.75	998.2439	241.73235	1177.4458	999.19592	23.22884	1243.3551	1097.21338	159.08972	1374.2384	840.44006	141.99246	1174.45776	773.44952	137.68076	1050.79431	765.36322	148.4534	920.71979	767.745	149.16202	800.58667	799.27521	131.82088	808.83014	746.08533	127.54282	722.86676	758.65155	151.57205	1370.28333	1155.43018	181.03812	1151.67432	1229.99316	215.25342	1044.54822	1240.94226	267.95563	918.62018	1235.64783	321.34464	838.25708	1192.72852	295.97525	822.03992	1237.49634	338.255	761.73096	1220.87659	219.20909	944.54205	890.78937	205.19023	935.53638	1127.13855	54.92419	965.51025	931.43665	47.99967	966.03955	1080.84778	186.54604	642.52039	846.62567	216.82835	467.0405	890.37634	187.72903	274.09457	888.64941	194.6382	64.66742	931.45258	156.03024	29.84207	966.88361	348.60629	30.542	955.0777	148.75093	633.19055	1171.91333	167.93649	453.13278	1151.15466	21.74003	328.89935	1146.36145	-140.78325	191.94974	1092.39661	-184.57204	208.84818	1035.47363	-97.94856	54.10251	1072.02576	185.91086	1678.39514	975.9151	NaN	NaN	NaN	NaN	NaN	NaN	NaN	NaN	NaN	NaN	NaN	NaN	NaN	NaN	NaN	NaN	NaN	NaN
138	1.37	270.08115	1604.82666	932.33575	260.21759	1615.46204	1064.32214	137.11757	1579.97095	927.76764	132.12459	1589.44507	1058.34851	85.94481	1418.3739	991.87091	52.55299	1101.55115	999.20807	206.72644	1341.22424	998.2019	250.98424	1177.88708	999.16168	31.99074	1243.42334	1096.31592	168.86908	1374.34717	840.20898	154.0202	1174.50159	772.62714	151.06343	1050.83362	764.24677	164.16003	920.961	766.95386	166.94875	801.18506	798.71399	149.58232	808.80212	745.31525	146.8365	722.85516	757.97339	160.16418	1370.30969	1155.37939	188.46579	1151.24243	1229.90759	221.98877	1043.72534	1240.85193	273.13257	917.22577	1235.82788	325.68805	836.03827	1193.18762	299.99777	820.29132	1237.97009	341.17703	759.15283	1221.28809	228.74922	944.53491	890.22064	214.2189	935.6181	1126.86951	64.17928	965.60901	930.63831	57.00466	965.54565	1080.05981	193.11264	642.79865	845.63562	221.67442	466.98947	889.56769	190.39606	274.229	888.30627	194.77466	64.78457	931.41046	156.00104	29.90903	966.84241	348.69266	30.4343	955.09344	162.341	633.69275	1171.59363	187.20953	454.18069	1151.30042	40.41486	331.82394	1145.39893	-123.38601	196.51923	1092.61121	-167.22301	212.17882	1034.83044	-79.52483	58.83979	1076.73608	194.69308	1678.72888	975.44684	NaN	NaN	NaN	NaN	NaN	NaN	NaN	NaN	NaN	NaN	NaN	NaN	NaN	NaN	NaN	NaN	NaN	NaN
